Coordinates

Units are S.I. units (second, meters, Newtons, ...)
If the header above contains a line with 'inDegrees', this indicates whether rotational values are in degrees (yes) or radians (no).

inDegrees=no
nColumns=21
nRows=27
DataType=double
version=3
OpenSimVersion=4.6-2026-03-31-d6972f9e6
endheader
time	/jointset/ground_pelvis/pelvis_tilt/value	/jointset/ground_pelvis/pelvis_list/value	/jointset/ground_pelvis/pelvis_rotation/value	/jointset/ground_pelvis/pelvis_tx/value	/jointset/ground_pelvis/pelvis_ty/value	/jointset/ground_pelvis/pelvis_tz/value	/jointset/hip_r/hip_flexion_r/value	/jointset/hip_r/hip_adduction_r/value	/jointset/hip_r/hip_rotation_r/value	/jointset/walker_knee_r/knee_angle_r/value	/jointset/patellofemoral_r/knee_angle_r_beta/value	/jointset/ankle_r/ankle_angle_r/value	/jointset/subtalar_r/subtalar_angle_r/value	/jointset/hip_l/hip_flexion_l/value	/jointset/hip_l/hip_adduction_l/value	/jointset/hip_l/hip_rotation_l/value	/jointset/walker_knee_l/knee_angle_l/value	/jointset/patellofemoral_l/knee_angle_l_beta/value	/jointset/ankle_l/ankle_angle_l/value	/jointset/subtalar_l/subtalar_angle_l/value
147.496	0.1806643709744896	-0.01266040017440324	1.426488042196682	0.8498691474971252	0.899564189225433	-0.6993404478152443	0.006203435323039548	0.2712294278259196	0.1866771567268319	0.5961462066335244	0.596146207937994	0.1515730408249997	-0.5426110138722898	0.2701119831022326	-0.3730525207268101	-0.07521438882168428	1.42683129818212	1.426831298169538	-0.3354539183270849	-0.5001821930446523
147.5	0.1720235646004331	-0.01255812609643793	1.430850005358304	0.8494847926188624	0.9014595464207948	-0.698940082824314	-0.009479939215765936	0.2579854699434909	0.1830203959211121	0.5827118671812734	0.5827118686829652	0.141594945970681	-0.5335399399726409	0.2880572670899641	-0.3597369147578593	-0.06940288294776291	1.417083946129429	1.417083946267631	-0.3270698805421705	-0.4949359953612553
147.504	0.1630830351929419	-0.01258856851234743	1.435724340796334	0.8490637000619091	0.9034902952818865	-0.6985981264137658	-0.02516559838974821	0.2443613807956041	0.1781454174347375	0.568443515516445	0.5684435171813664	0.1303566618374049	-0.5236714902012808	0.3054520570458776	-0.3456811704095649	-0.06379645152143212	1.40553084606171	1.405530846368574	-0.3193735881232675	-0.4904156581883717
147.508	0.1538800874791992	-0.01280577634156492	1.441068114469875	0.8486091936360988	0.9056433966081739	-0.698314684080997	-0.04075751989689801	0.2304486119947758	0.1720756639203502	0.5534512512526417	0.5534512530386209	0.1178034224477906	-0.5130449567671395	0.3222825731831314	-0.3309663740379747	-0.05843389304699018	1.392188857408455	1.39218885789453	-0.3124105752307633	-0.4866995772258415
147.512	0.1444470997074514	-0.0132606820236251	1.446829986807089	0.8481251461093857	0.9079060045665354	-0.6980900486292834	-0.05616405285801467	0.2163317293945154	0.1648567845643354	0.5378473255427378	0.5378473274016948	0.1038825147448462	-0.5017138386851657	0.3385351055609119	-0.3156693765299313	-0.05335124984873298	1.37707170770754	1.377071708375697	-0.3062191064180077	-0.4838399239338307
147.516	0.1348122825828161	-0.01399964719759059	1.452951149008162	0.8476159120783551	0.9102655024941793	-0.6979246976958742	-0.07129982252874047	0.2020878737729223	0.1565547030209188	0.5217438413846606	0.5217438432652362	0.08854625755702991	-0.4897456158111446	0.3541951347803552	-0.2998635345044674	-0.04858193308020241	1.360190494159722	1.360190495005432	-0.3008294012826798	-0.4818601566817901
147.52	0.1250006045322171	-0.01506309517979279	1.45936657515121	0.847086224176902	0.9127095190901475	-0.6978192719511198	-0.0860874466341653	0.1877864695082457	0.1472529367396717	0.5052505185373024	0.5052505203875568	0.07175480458270837	-0.4772210452686364	0.3692466373634394	-0.2836194698477835	-0.0441565487905956	1.341554569122136	1.341554570134156	-0.2962628849805161	-0.480753214475116
147.524	0.1150348549986622	-0.01648432281192252	1.46600648774749	0.8465410637698667	0.9152259241457754	-0.697774533066865	-0.1004589505710565	0.1734892148502792	0.1370494511380067	0.4884727053102371	0.4884727070801795	0.0534787603595101	-0.4642329115749176	0.3836716512171921	-0.267005849774435	-0.04010249898338909	1.321172795818008	1.321172796979239	-0.2925314574009716	-0.4804804932432735
147.528	0.1049368506547956	-0.01828868941287595	1.472797869615698	0.8459855246892221	0.9178027951957128	-0.6977912987151051	-0.1143566416618993	0.1592504369405573	0.1260534244127684	0.4715098699284104	0.4715098715722147	0.03370158159766902	-0.4508841735954177	0.3974502761366376	-0.2500902831105394	-0.03644349875200885	1.299055170069786	1.299055171358182	-0.2896367995803944	-0.4809717087346548
147.532	0.09472875555117875	-0.02049330155724685	1.479665923547912	0.8454246820609945	0.9204283521446424	-0.69787035497481	-0.1277332989516386	0.1451178309167132	0.1143821866611363	0.4544547242579574	0.4544547257357537	0.01242174571201128	-0.4372855366985758	0.4105612126903558	-0.2329403505340986	-0.03319908768277763	1.275214777827598	1.275214779217129	-0.2875697408166555	-0.48212569652738
147.536	0.08443444969094052	-0.02310717364201148	1.48653545210745	0.8448634714564285	0.9230908672439871	-0.6980123499695519	-0.1405517020368742	0.1311335271884186	0.1021584644751283	0.4373930358665127	0.4373930371455921	-0.01034532463101454	-0.4235525471618601	0.4229827960073178	-0.215624700930152	-0.03038415852840608	1.249670016179286	1.249670017641013	-0.2863097120814834	-0.4838121472831491
147.54	0.07408085041061001	-0.02613173986738096	1.493332169370833	0.8443065797028283	0.9257785657119928	-0.6982176751031068	-0.1527836502966325	0.1173353750593472	0.08950796111399739	0.4204041116032646	0.4204041126585466	-0.03456559397808765	-0.4098023433392307	0.434694357739304	-0.1982140893268279	-0.02800850685409513	1.222446965825064	1.222446967328231	-0.2858243328389918	-0.4858742547283521
147.544	0.06369902049772971	-0.02956151488206462	1.499984021137607	0.8437583418267834	0.9284795381309535	-0.6984863440060112	-0.1644087365067591	0.103758243182944	0.07655716379830028	0.4035618309587495	0.4035618317725374	-0.06018501795493768	-0.3961502520961147	0.4456776601174566	-0.1807821144195151	-0.02607636616183658	1.193581768208841	1.193581769721881	-0.286069228671016	-0.4881322621906049
147.548	0.05332483837144988	-0.03338467682733254	1.506422641705784	0.8432226325997891	0.9311816869309244	-0.6988178819073736	-0.175413192467348	0.09043506948427202	0.0634311708636264	0.3869360062911729	0.3869360068525017	-0.08712843322587417	-0.3827064676336412	0.4559181250258055	-0.1634053180461779	-0.02458585671318838	1.163122846743713	1.163122848235196	-0.2869882180976907	-0.4903878967551452
147.552	0.04299911010982964	-0.03758347266780506	1.512584987490126	0.8427027491045659	0.9338727180338068	-0.6992112336693139	-0.1857889701996298	0.07739750690236384	0.05025148316193702	0.3705938922390321	0.3705938925431076	-0.1152987539543466	-0.3695730212355814	0.4654057229117155	-0.1461624904624285	-0.02352832923010256	1.131132853495307	1.131132854935001	-0.2885139568660445	-0.4924296032273532
147.556	0.03276722112944695	-0.04213455239099655	1.518415004291078	0.8422012989634577	0.9365401709033442	-0.6996646901098602	-0.195532948168074	0.0646762511053787	0.03713401588399064	0.3546018169820959	0.3546018170302299	-0.1445765089066436	-0.3568411700122669	0.4741356107887498	-0.1291334013296568	-0.0228877039251838	1.097690293493166	1.097690294853297	-0.2905690105886941	-0.4940383578091423
147.56	0.0226785085394718	-0.04700938910533515	1.523865113127947	0.8417201160926099	0.9391714750958984	-0.7001758296473009	-0.204646085111643	0.05230122440008127	0.02418767605669512	0.3390269391986631	0.3390269389987179	-0.1748197664827659	-0.3445892918389495	0.4821086577165358	-0.1123973237442458	-0.02263996454677237	1.062890794743752	1.062890796000422	-0.2930672891734831	-0.4949938098074719
147.564	0.01278545042730062	-0.0521748201319779	1.528897373044948	0.8412602176543817	0.9417540298039828	-0.7007414761925868	-0.2131325052749068	0.04030168776824899	0.01151366087736481	0.3239390303580935	0.3239390299250029	-0.2058645010995397	-0.3328813737926333	0.489331859281842	-0.09603157147086526	-0.02275293644723501	1.026847953323015	1.026847954457656	-0.2959158439178829	-0.4950805921737608
147.568	0.003142693277195038	-0.05759365999653931	1.533484262956441	0.8408218060828818	0.9442753077403545	-0.7013576771271854	-0.220998603720886	0.02870626362437778	-0.0007945655996366761	0.3094121181857503	0.3094121175415336	-0.2375254638945138	-0.3217661711610796	0.4958185597857259	-0.0801101231644802	-0.02318642352081793	0.9896936684126175	0.9896936694133195	-0.2990170652276298	-0.4940946989204524
147.572	-0.006194065428223253	-0.06322535666870144	1.537609064302086	0.8404043147121151	0.9467229811630788	-0.7020197048047667	-0.2282522247279933	0.01754284744840655	-0.01265075113809098	0.2955258479035302	0.2955258470764631	-0.2695976364573683	-0.3112770882775417	0.5015884446023274	-0.0647023718272073	-0.02389273341289802	0.9515779135227065	0.9515779143852113	-0.302271269199565	-0.4918497844403862
147.576	-0.01516930667287839	-0.06902669267670644	1.541265844009476	0.8400064927006232	0.949085063897959	-0.7027220833281216	-0.2349019209620254	0.006838406587997678	-0.02397494660720009	0.2823664481447038	0.2823664471677075	-0.301858347708269	-0.3014327923300324	0.5066673183843992	-0.04987203604701841	-0.02481758366571955	0.9126679287505095	0.9126679294786356	-0.3055796035480296	-0.4881831939839409
147.58	-0.02372898535549764	-0.07495253200907057	1.544459046067193	0.8396265236052886	0.9513500621299255	-0.7034586406530745	-0.2409563009859042	-0.003381318144648643	-0.03469234208307578	0.2700272003783945	0.2700271992869779	-0.3340701088871075	-0.29223850481467	0.5110866960875902	-0.03567626460307296	-0.02590134860908229	0.8731468456753032	0.8731468462806238	-0.3088471916743937	-0.4829615460336569
147.584	-0.03182183301451543	-0.0809566157662187	1.54720271240061	0.8392621708739586	0.9535071256497113	-0.7042225850003041	-0.2464234704429288	-0.0130921751557846	-0.04473195021568861	0.2586083282027948	0.2586083270328908	-0.3659841826303312	-0.2836878483877374	0.5148832461899713	-0.02216495974312428	-0.02708057327486327	0.8332117831413058	0.8332117836419428	-0.3119864260810392	-0.4760857054650944
147.588	-0.03940061229946625	-0.08699240226308494	1.549519377729166	0.8389109417734983	0.9555461909704724	-0.7050066050492377	-0.2513105765656947	-0.02227199442068022	-0.05402527346118542	0.2482162531097542	0.2482162518956206	-0.3973448743411352	-0.2757651179769048	0.5180981246619208	-0.009380326233446219	-0.02828966779832672	0.7930714780049778	0.7930714784235555	-0.3149202755632654	-0.4674949828788569
147.592	-0.04642330845680863	-0.09301387244129991	1.551438711336364	0.8385702596309238	0.9574581131058657	-0.7058029954917573	-0.2556235485851471	-0.03090101204956452	-0.06250518431485592	0.2389621838348016	0.2389621826070638	-0.4278945340606984	-0.2684479100758971	0.5207761496006047	0.002643399870856259	-0.02946271603605616	0.75294351789042	0.7529435182514954	-0.3175854211046505	-0.4571704189307247
147.596	-0.0528542835681932	-0.09897614205094846	1.552995997044444	0.838237633490337	0.9592347894055906	-0.7066038102471105	-0.2593672150560483	-0.03896236771781594	-0.07010529259014359	0.2309600251627688	0.2309600239467391	-0.4573792494391822	-0.2617100913893451	0.5229646709940154	0.0138801418418509	-0.03053534354447783	0.7130512393748513	0.7130512397022499	-0.3199350276295782	-0.4451370703668194
147.6	-0.05866537615394309	-0.1048358052463915	1.554230541817373	0.8379108140889771	0.9608692735318821	-0.7074010416382812	-0.2625458674384354	-0.04644267224945593	-0.07675998991037856	0.2243236602732134	0.2243236590876247	-0.4855551261916454	-0.2555250039130036	0.5247121027353409	0.02431214995530255	-0.03144655488545928	0.6736204026805498	0.6736204029949706	-0.3219409583651229	-0.4314652295802378
